<svg width="988" height="152" viewBox="0 0 988 152" fill="none" xmlns="http://www.w3.org/2000/svg">
<path d="M0 13.7408C0 6.15196 6.15197 0 13.7408 0H974.259C981.848 0 988 6.15197 988 13.7408V138.259C988 145.848 981.848 152 974.259 152H13.7408C6.15194 152 0 145.848 0 138.259V13.7408Z" fill="black"/>
<path d="M988 13.7408C988 6.15196 981.848 0 974.259 0H671.84L721.925 152H974.259C981.848 152 988 145.848 988 138.259V13.7408Z" fill="#192631"/>
<path d="M76.6658 100.039V79.8041H97.5777V71.2897H76.6658V57.5028H99.5727V48.6322H65.907V100.039H76.6658ZM118.169 93.1278C114.642 93.1278 112.291 91.3466 112.291 88.4966C112.291 85.7891 114.5 84.0434 118.383 83.7584L126.434 83.2597V86.0384C126.434 90.1709 122.693 93.1278 118.169 93.1278ZM114.749 100.645C119.523 100.645 124.261 98.2578 126.398 94.1966H126.612V100.039H136.658V73.7834C136.658 66.0884 130.281 61.0297 120.485 61.0297C110.367 61.0297 104.061 66.1241 103.67 73.5341H113.181C113.68 70.7197 116.138 68.7959 120.021 68.7959C123.94 68.7959 126.434 70.8622 126.434 74.4247V76.9541L116.815 77.5241C107.303 78.0941 101.96 82.1197 101.96 89.0666C101.96 95.9422 107.481 100.645 114.749 100.645ZM142.75 73.0709C142.75 78.6997 146.455 82.4759 153.687 84.1147L160.741 85.6822C164.161 86.5016 165.443 87.5703 165.443 89.4941C165.443 91.9878 163.056 93.5553 159.102 93.5553C154.97 93.5553 152.44 91.7028 151.941 88.4966H141.788C142.358 95.9422 148.628 100.858 158.817 100.858C168.899 100.858 175.81 95.9066 175.81 88.3897C175.81 82.6897 172.711 79.6616 165.051 77.9516L157.748 76.3841C154.4 75.6003 152.761 74.3178 152.761 72.4297C152.761 69.9716 155.112 68.3328 158.71 68.3328C162.558 68.3328 165.016 70.2209 165.23 73.2847H174.813C174.67 65.8747 168.436 61.0297 158.853 61.0297C149.056 61.0297 142.75 65.8034 142.75 73.0709ZM183.79 53.0497V61.8491H178.411V69.6866H183.79V89.7434C183.79 97.1891 187.281 100.182 196.259 100.182C198.361 100.182 200.142 100.003 201.211 99.7541V92.0947C200.57 92.2016 199.608 92.2728 198.681 92.2728C195.618 92.2728 194.193 90.8834 194.193 87.9622V69.6866H201.246V61.8491H194.193V53.0497H183.79ZM245.03 100.93C257.641 100.93 266.44 93.6622 267.651 82.1909H257.178C256.038 88.2828 251.442 92.0234 245.065 92.0234C236.836 92.0234 231.67 85.2547 231.67 74.2822C231.67 63.4522 236.907 56.6478 245.03 56.6478C251.3 56.6478 256.145 60.7803 257.142 67.0859H267.616C266.796 55.5791 257.391 47.7416 245.03 47.7416C230.138 47.7416 220.698 57.7522 220.698 74.3178C220.698 90.9191 230.067 100.93 245.03 100.93ZM273.672 100.039H284.075V78.2366C284.075 73.2134 286.96 69.7578 291.876 69.7578C296.615 69.7578 299.037 72.7503 299.037 77.6666V100.039H309.44V75.4578C309.44 66.6228 304.595 61.1366 296.116 61.1366C290.309 61.1366 286.141 63.8441 284.11 68.6534H283.896V48.6322H273.672V100.039ZM333.237 68.7247C337.868 68.7247 341.039 72.0734 341.253 76.9541H325.043C325.4 72.1803 328.677 68.7247 333.237 68.7247ZM341.395 88.3541C340.433 91.2753 337.512 93.1634 333.7 93.1634C328.392 93.1634 324.936 89.4228 324.936 83.9722V83.3309H351.263V80.1603C351.263 68.5466 344.245 61.0297 333.13 61.0297C321.837 61.0297 314.712 68.9384 314.712 81.1222C314.712 93.3416 321.766 100.858 333.522 100.858C342.963 100.858 349.803 95.8353 350.943 88.3541H341.395ZM391.341 76.0634C390.878 67.4066 384.323 61.0297 373.992 61.0297C362.556 61.0297 355.253 68.6534 355.253 80.9084C355.253 93.3772 362.556 100.858 374.063 100.858C384.11 100.858 390.843 95.0516 391.377 86.0384H381.687C381.046 90.2066 378.338 92.7003 374.17 92.7003C369.005 92.7003 365.798 88.4253 365.798 80.9084C365.798 73.5341 369.005 69.1878 374.135 69.1878C378.41 69.1878 381.081 72.0378 381.687 76.0634H391.341ZM407.195 77.1678H407.052V48.6322H396.65V100.039H407.052V87.4278L409.76 84.5066L420.696 100.039H432.666L417.383 78.2366L431.954 61.8491H420.162L407.195 77.1678ZM451.405 100.858C462.948 100.858 470.322 93.4841 470.322 80.9084C470.322 68.5109 462.841 61.0297 451.405 61.0297C439.97 61.0297 432.488 68.5466 432.488 80.9084C432.488 93.4484 439.863 100.858 451.405 100.858ZM451.405 92.9141C446.275 92.9141 443.033 88.6034 443.033 80.9441C443.033 73.3559 446.346 68.9741 451.405 68.9741C456.464 68.9741 459.741 73.3559 459.741 80.9441C459.741 88.6034 456.5 92.9141 451.405 92.9141ZM510.97 61.8491H500.568V83.7228C500.568 88.7816 497.682 92.0947 493.051 92.0947C488.455 92.0947 485.926 89.3872 485.926 84.2928V61.8491H475.523V86.4659C475.523 95.3722 481.01 100.752 489.275 100.752C495.046 100.752 498.822 97.9728 500.71 93.1634H500.924V100.039H510.97V61.8491ZM520.518 53.0497V61.8491H515.138V69.6866H520.518V89.7434C520.518 97.1891 524.009 100.182 532.986 100.182C535.088 100.182 536.87 100.003 537.938 99.7541V92.0947C537.297 92.2016 536.335 92.2728 535.409 92.2728C532.345 92.2728 530.92 90.8834 530.92 87.9622V69.6866H537.974V61.8491H530.92V53.0497H520.518Z" fill="white"/>
<g clip-path="url(#clip0)">
<path d="M838.963 99.9103C836.452 99.9103 834.286 99.2391 832.467 97.8968C830.647 96.5544 829.36 94.627 828.605 92.1144L834.142 89.9231C834.412 91.0963 834.969 92.184 835.763 93.0882C836.517 93.9177 837.583 94.3324 838.963 94.3324C839.4 94.3337 839.837 94.2831 840.263 94.1814C840.652 94.0915 841.023 93.9323 841.356 93.7115C841.667 93.4987 841.93 93.2224 842.128 92.9008C842.332 92.5599 842.437 92.1685 842.43 91.7711C842.438 91.347 842.347 90.9268 842.164 90.5441C841.981 90.1615 841.711 89.827 841.375 89.5677C840.91 89.1983 840.404 88.8823 839.868 88.6255C839.095 88.2509 838.303 87.9176 837.495 87.6272L835.837 87.0259C835.083 86.7507 834.358 86.4033 833.672 85.9887C832.931 85.5494 832.252 85.0113 831.656 84.3891C831.052 83.7532 830.558 83.0208 830.195 82.2222C829.81 81.3647 829.617 80.4331 829.63 79.4929C829.624 78.442 829.842 77.4017 830.271 76.4422C830.691 75.501 831.307 74.6607 832.08 73.9783C832.91 73.2586 833.869 72.7026 834.906 72.3398C837.263 71.5574 839.806 71.5378 842.174 72.2838C843.099 72.6035 843.965 73.0749 844.735 73.6789C845.406 74.2051 845.974 74.8495 846.413 75.5804C846.799 76.2248 847.12 76.9058 847.372 77.6133L842.288 79.7607C842.043 78.9988 841.586 78.323 840.969 77.813C840.3 77.303 839.474 77.0444 838.634 77.0826C837.631 77.0826 836.834 77.2895 836.243 77.7034C835.971 77.8724 835.747 78.108 835.592 78.388C835.437 78.668 835.356 78.9829 835.357 79.303C835.364 79.6529 835.449 79.9968 835.606 80.3097C835.762 80.6227 835.987 80.8967 836.263 81.112C836.865 81.6379 837.932 82.1654 839.464 82.6945L841.12 83.2594C843.407 84.0352 845.178 85.0773 846.432 86.3855C847.687 87.6938 848.314 89.4516 848.314 91.6591C848.346 92.9286 848.055 94.1854 847.467 95.3111C846.927 96.3108 846.18 97.184 845.276 97.8724C844.37 98.5574 843.35 99.0744 842.262 99.399C841.193 99.7314 840.082 99.9037 838.963 99.9103Z" fill="white"/>
<path d="M869.737 94.8326C868.886 96.3576 867.661 97.6412 866.178 98.5626C864.707 99.465 862.931 99.9163 860.848 99.9163C859.488 99.9307 858.138 99.6827 856.872 99.1858C855.687 98.7169 854.606 98.0195 853.69 97.1334C852.784 96.2505 852.067 95.1927 851.582 94.0243C851.067 92.7765 850.81 91.4372 850.827 90.0874C850.823 88.8051 851.072 87.5346 851.56 86.3486C852.047 85.1626 852.764 84.0842 853.668 83.1753C854.569 82.2772 855.63 81.5554 856.797 81.0474C858.025 80.5117 859.353 80.2421 860.692 80.2561C862.081 80.2272 863.46 80.4824 864.746 81.006C865.858 81.4702 866.855 82.1715 867.668 83.0609C868.458 83.9499 869.059 84.9903 869.435 86.1188C869.843 87.3256 870.047 88.5921 870.037 89.8658C870.037 90.0679 870.037 90.2676 870.02 90.4672C870.009 90.6442 869.99 90.8205 869.961 90.9955C869.938 91.1568 869.926 91.3195 869.925 91.4825H856.327C856.605 92.6868 857.173 93.5658 858.031 94.1192C858.883 94.6709 859.879 94.9588 860.894 94.947C861.814 94.9837 862.725 94.7483 863.512 94.2702C864.189 93.8323 864.751 93.2377 865.15 92.5367L869.737 94.8326ZM864.727 87.6381C864.66 87.2964 864.539 86.9676 864.369 86.6642C864.169 86.2928 863.9 85.9624 863.577 85.6903C863.207 85.384 862.787 85.1428 862.336 84.977C861.812 84.7813 861.256 84.6847 860.697 84.6921C859.791 84.6909 858.908 84.9737 858.171 85.5009C857.434 86.028 856.881 86.7729 856.59 87.6308L864.727 87.6381Z" fill="white"/>
<path d="M891.319 94.6017C890.477 96.1898 889.237 97.532 887.721 98.4972C886.226 99.4402 884.412 99.9109 882.279 99.9093C880.92 99.924 879.571 99.676 878.306 99.1789C877.127 98.7154 876.052 98.0237 875.141 97.1435C874.24 96.2646 873.534 95.2061 873.069 94.0368C872.092 91.4906 872.092 88.6728 873.069 86.1265C873.535 84.9576 874.241 83.8993 875.141 83.0198C876.052 82.1404 877.127 81.4496 878.306 80.9869C879.571 80.4898 880.92 80.2418 882.279 80.2565C884.389 80.2565 886.203 80.7207 887.721 81.6491C889.214 82.5509 890.392 83.893 891.093 85.4911L885.887 87.6725C885.548 87.0155 885.045 86.457 884.427 86.051C883.769 85.6766 883.019 85.4944 882.262 85.5251C881.695 85.5079 881.129 85.607 880.601 85.8164C880.073 86.0257 879.594 86.3409 879.192 86.7425C878.381 87.5541 877.975 88.6651 877.975 90.0756C877.975 91.4861 878.381 92.5971 879.192 93.4087C879.897 94.0684 880.794 94.4861 881.752 94.6013C882.71 94.7164 883.681 94.523 884.522 94.049C885.184 93.623 885.728 93.0368 886.104 92.3447L891.319 94.6017Z" fill="white"/>
<path d="M907.069 96.9756H906.692C905.437 98.9331 903.555 99.9118 901.044 99.9118C898.732 99.9118 897.012 99.1717 895.882 97.6914C894.752 96.2111 894.184 94.2633 894.178 91.8481V80.8555H899.829V91.2127C899.791 92.0909 900.043 92.9573 900.544 93.679C901.019 94.3193 901.762 94.6529 902.765 94.6529C904.046 94.6529 905.019 94.1659 905.687 93.1921C906.354 92.2182 906.686 90.9375 906.685 89.3501V80.8555H912.336V99.3104H907.069V96.9756Z" fill="white"/>
<path d="M916.564 80.8591H921.838V83.1964H922.215C922.759 82.349 923.492 81.639 924.355 81.122C925.281 80.5452 926.352 80.2446 927.443 80.2553C928.042 80.2422 928.639 80.3243 929.213 80.4987C929.643 80.6364 930.055 80.8235 930.442 81.0563L928.981 86.0937C928.652 85.9173 928.304 85.7784 927.944 85.6798C927.482 85.5684 927.007 85.5177 926.532 85.5288C925.125 85.5288 924.051 86.0157 923.311 86.9896C922.571 87.9635 922.201 89.2441 922.201 90.8316V99.314H916.564V80.8591Z" fill="white"/>
<path d="M949.432 94.8327C948.581 96.3577 947.356 97.6413 945.872 98.5627C944.402 99.4651 942.625 99.9164 940.543 99.9164C939.184 99.931 937.835 99.683 936.569 99.1859C935.383 98.7176 934.301 98.0202 933.385 97.1335C932.479 96.2506 931.762 95.1928 931.276 94.0244C930.764 92.7768 930.508 91.4386 930.524 90.0899C930.519 88.8072 930.767 87.5361 931.254 86.3495C931.741 85.1629 932.458 84.0842 933.363 83.1754C934.263 82.2773 935.323 81.5556 936.489 81.0475C937.717 80.5118 939.045 80.2422 940.385 80.2562C941.775 80.2267 943.156 80.4819 944.443 81.0061C945.555 81.4703 946.552 82.1716 947.365 83.061C948.155 83.95 948.757 84.9904 949.133 86.1189C949.54 87.3257 949.744 88.5922 949.734 89.8659C949.734 90.068 949.734 90.2677 949.717 90.4673C949.706 90.6443 949.687 90.8206 949.658 90.9956C949.635 91.1569 949.623 91.3196 949.622 91.4826H936.024C936.302 92.6869 936.87 93.5659 937.728 94.1193C938.581 94.671 939.577 94.9589 940.592 94.9471C941.512 94.9838 942.422 94.7484 943.209 94.2703C943.886 93.8323 944.448 93.2378 944.847 92.5368L949.432 94.8327ZM944.424 87.6382C944.357 87.2965 944.236 86.9677 944.066 86.6643C943.866 86.2928 943.597 85.9625 943.275 85.6904C942.904 85.3841 942.484 85.1429 942.033 84.9771C941.509 84.7812 940.954 84.6846 940.394 84.6922C939.487 84.6899 938.602 84.9731 937.864 85.5018C937.126 86.0306 936.574 86.778 936.285 87.6382H944.424Z" fill="white"/>
<path d="M825.933 86.0925C825.487 84.9424 824.826 83.888 823.985 82.9858C823.183 82.1285 822.216 81.4427 821.141 80.9699C820.075 80.4954 818.92 80.2515 817.752 80.2541C816.397 80.2541 815.274 80.5113 814.383 81.0259C813.571 81.4636 812.889 82.1067 812.403 82.8908L812.389 80.3636L812.403 80.2541V72.3438H806.76V99.3104H812.036V97.2774H812.411C812.894 98.0628 813.577 98.7062 814.39 99.1424C815.28 99.6586 816.403 99.9158 817.76 99.9142C818.927 99.9168 820.082 99.6729 821.149 99.1984C822.223 98.7256 823.19 98.0407 823.993 97.1849C824.833 96.2824 825.494 95.2281 825.94 94.0783C826.429 92.8045 826.671 91.4495 826.654 90.0854C826.669 88.7207 826.424 87.3656 825.933 86.0925ZM820.638 91.9869C820.416 92.5265 820.084 93.0141 819.664 93.4185C819.248 93.8072 818.762 94.1137 818.232 94.3217C817.13 94.7503 815.906 94.7503 814.804 94.3217C814.275 94.1131 813.79 93.8067 813.375 93.4185C812.953 93.0148 812.622 92.527 812.401 91.9869C812.156 91.3833 812.035 90.7366 812.045 90.0854C812.033 89.4402 812.154 88.7996 812.401 88.2033C812.628 87.6657 812.959 87.1783 813.375 86.7693C813.783 86.3713 814.265 86.0578 814.794 85.8466C815.897 85.418 817.12 85.418 818.222 85.8466C818.759 86.0549 819.25 86.3687 819.664 86.7693C820.079 87.179 820.41 87.6662 820.638 88.2033C820.883 88.7999 821.004 89.4403 820.993 90.0854C821.002 90.7365 820.881 91.383 820.638 91.9869Z" fill="white"/>
<path d="M747.908 86.318V91.7447C748.001 93.2865 748.492 94.778 749.334 96.0728C750.979 98.5128 753.689 99.8834 756.728 99.8834H781.321C789.471 99.8834 796.08 93.2208 796.08 85.0029C796.08 76.785 789.478 70.1409 781.329 70.1409H777.667V70.3574V70.1409V66.6789C777.667 58.5217 771.007 51.9199 762.789 51.9199C754.571 51.9199 747.908 58.5217 747.908 66.6789V86.318ZM753.007 87.9975V66.6789C753.007 64.0855 754.038 61.5983 755.872 59.7644C757.705 57.9306 760.193 56.9003 762.786 56.9003C765.379 56.9003 767.867 57.9306 769.701 59.7644C771.534 61.5983 772.565 64.0855 772.565 66.6789V70.3442H759.361V79.9829C759.361 81.1855 759.598 82.3764 760.058 83.4875C760.518 84.5986 761.193 85.6082 762.043 86.4586C762.894 87.309 763.903 87.9836 765.014 88.4438C766.126 88.904 767.316 89.1409 768.519 89.1409C769.722 89.1409 770.913 88.904 772.024 88.4438C773.135 87.9836 774.144 87.309 774.995 86.4586C775.845 85.6082 776.52 84.5986 776.98 83.4875C777.44 82.3764 777.677 81.1855 777.677 79.9829V75.2296H781.34C783.933 75.2296 786.42 76.2597 788.253 78.0933C790.087 79.9269 791.117 82.4138 791.117 85.0069C791.117 87.6 790.087 90.0868 788.253 91.9204C786.42 93.754 783.933 94.7841 781.34 94.7841H758.954C757.087 94.7841 755.065 95.138 753.755 93.4902C753.349 92.9498 753.092 92.3124 753.01 91.6417L753.007 87.9975ZM772.567 75.2269V79.5234C772.54 80.5885 772.098 81.6009 771.335 82.3447C770.572 83.0885 769.549 83.5047 768.483 83.5047C767.418 83.5047 766.395 83.0885 765.632 82.3447C764.869 81.6009 764.427 80.5885 764.4 79.5234V75.2269H772.567Z" fill="url(#paint0_linear)"/>
<path d="M772.567 70.3438H770.143V75.2264H772.567V70.3438Z" fill="#134DDE"/>
<path d="M806.767 53.5072V66.7891H809.547V62.6655H812.17C814.968 62.6655 816.91 60.8339 816.91 58.1002C816.91 55.3389 815.042 53.5072 812.308 53.5072H806.767ZM809.547 55.7899H811.572C813.173 55.7899 814.084 56.5999 814.084 58.1094C814.084 59.6005 813.155 60.4105 811.562 60.4105H809.547V55.7899ZM825.277 53.1667C821.374 53.1667 818.88 55.8359 818.88 60.1435C818.88 64.4512 821.337 67.1296 825.277 67.1296C829.207 67.1296 831.655 64.4512 831.655 60.1435C831.655 55.8451 829.198 53.1667 825.277 53.1667ZM825.277 55.6058C827.44 55.6058 828.821 57.3638 828.821 60.1435C828.821 62.914 827.44 64.6905 825.277 64.6905C823.095 64.6905 821.724 62.914 821.724 60.1435C821.724 57.3638 823.123 55.6058 825.277 55.6058ZM841.651 57.9989H841.799L844.311 66.7891H846.916L850.441 53.5072H847.57L845.517 62.868H845.37L842.903 53.5072H840.556L838.135 62.868H837.988L835.917 53.5072H833.027L836.543 66.7891H839.166L841.651 57.9989ZM861.662 64.4143H855.642V61.1836H861.321V58.9838H855.642V55.882H861.662V53.5072H852.862V66.7891H861.662V64.4143ZM867.368 55.7531H869.78C871.16 55.7531 872.026 56.5447 872.026 57.8057C872.026 59.0851 871.206 59.8398 869.807 59.8398H867.368V55.7531ZM867.368 61.9752H869.642L872.118 66.7891H875.266L872.467 61.5426C873.995 60.9351 874.879 59.4624 874.879 57.7688C874.879 55.1272 873.084 53.5072 870.166 53.5072H864.589V66.7891H867.368V61.9752ZM886.476 64.4143H880.457V61.1836H886.136V58.9838H880.457V55.882H886.476V53.5072H877.677V66.7891H886.476V64.4143ZM889.403 53.498V66.7891H894.631C898.608 66.7891 900.863 64.3683 900.863 60.0515C900.863 55.8912 898.58 53.498 894.631 53.498H889.403ZM892.183 55.8727H894.19C896.601 55.8727 898.028 57.4099 898.028 60.0975C898.028 62.9048 896.647 64.4143 894.19 64.4143H892.183V55.8727ZM914.31 66.7891C917.145 66.7891 918.903 65.3164 918.903 62.9877C918.903 61.2757 917.624 59.9503 915.866 59.8214V59.6557C917.228 59.4532 918.268 58.2291 918.268 56.8208C918.268 54.7682 916.731 53.5072 914.154 53.5072H908.346V66.7891H914.31ZM911.126 55.6334H913.445C914.77 55.6334 915.534 56.2685 915.534 57.327C915.534 58.3947 914.715 59.0114 913.215 59.0114H911.126V55.6334ZM911.126 64.6629V60.8891H913.537C915.175 60.8891 916.068 61.5334 916.068 62.7484C916.068 63.991 915.203 64.6629 913.601 64.6629H911.126ZM927.509 66.7891V61.9016L932.13 53.5072H929.12L926.202 59.0666H926.037L923.11 53.5072H920.1L924.729 61.9016V66.7891H927.509Z" fill="#137BDE"/>
</g>
<defs>
<linearGradient id="paint0_linear" x1="747.908" y1="75.903" x2="796.088" y2="75.903" gradientUnits="userSpaceOnUse">
<stop stop-color="#134DDE"/>
<stop offset="1" stop-color="#137BDE"/>
</linearGradient>
<clipPath id="clip0">
<rect width="202.08" height="49.773" fill="white" transform="translate(747.84 51.6797)"/>
</clipPath>
</defs>
</svg>
