<svg version="1.1" width="325" height="50" id="Layer_1" xmlns="http://www.w3.org/2000/svg" xmlns:xlink="http://www.w3.org/1999/xlink" x="0px" y="0px"
	 viewBox="0 0 325 50" style="enable-background:new 0 0 325 50;" xml:space="preserve">
<style type="text/css">
	.st0{clip-path:url(#SVGID_2_);}
	.st1{fill:#FFFFFF;}
	.st2{fill:url(#SVGID_3_);}
	.st3{fill:#134DDE;}
</style>
<path d="M4.5,0h316c2.5,0,4.5,2,4.5,4.5v41c0,2.5-2,4.5-4.5,4.5H4.5C2,50,0,48,0,45.5v-41C0,2,2,0,4.5,0z"/>
<g>
	<defs>
		<rect id="SVGID_1_" x="152" y="11" width="124.9" height="27"/>
	</defs>
	<clipPath id="SVGID_2_">
		<use xlink:href="#SVGID_1_"  style="overflow:visible;"/>
	</clipPath>
	<g class="st0">
		<path class="st1" d="M209.3,33.1c-1.5,0-2.9-0.4-4-1.2c-1.1-0.8-1.9-2-2.4-3.5l3.4-1.3c0.2,0.7,0.5,1.4,1,1.9
			c0.5,0.5,1.1,0.8,2,0.8c0.3,0,0.5,0,0.8-0.1c0.2-0.1,0.5-0.2,0.7-0.3c0.2-0.1,0.4-0.3,0.5-0.5c0.1-0.2,0.2-0.4,0.2-0.7
			c0-0.3-0.1-0.5-0.2-0.7c-0.1-0.2-0.3-0.4-0.5-0.6c-0.3-0.2-0.6-0.4-0.9-0.6c-0.5-0.2-1-0.4-1.4-0.6l-1-0.4
			c-0.5-0.2-0.9-0.4-1.3-0.6c-0.5-0.3-0.9-0.6-1.2-1c-0.4-0.4-0.7-0.8-0.9-1.3c-0.2-0.5-0.4-1.1-0.3-1.7c0-0.6,0.1-1.3,0.4-1.9
			c0.3-0.6,0.6-1.1,1.1-1.5c0.5-0.4,1.1-0.8,1.7-1c1.4-0.5,3-0.5,4.4,0c0.6,0.2,1.1,0.5,1.6,0.9c0.4,0.3,0.8,0.7,1,1.2
			c0.2,0.4,0.4,0.8,0.6,1.2l-3.1,1.3c-0.2-0.5-0.4-0.9-0.8-1.2c-0.4-0.3-0.9-0.5-1.4-0.4c-0.6,0-1.1,0.1-1.5,0.4
			c-0.2,0.1-0.3,0.2-0.4,0.4c-0.1,0.2-0.1,0.4-0.1,0.6c0,0.2,0.1,0.4,0.2,0.6c0.1,0.2,0.2,0.4,0.4,0.5c0.4,0.3,1,0.6,2,1l1,0.3
			c1.4,0.5,2.5,1.1,3.2,1.9s1.1,1.9,1.1,3.2c0,0.8-0.2,1.5-0.5,2.2c-0.3,0.6-0.8,1.1-1.3,1.6c-0.6,0.4-1.2,0.7-1.8,0.9
			C210.6,33,210,33.1,209.3,33.1z"/>
		<path class="st1" d="M228.1,30c-0.5,0.9-1.3,1.7-2.2,2.3c-0.9,0.6-2,0.8-3.3,0.8c-0.8,0-1.7-0.1-2.4-0.4c-0.7-0.3-1.4-0.7-1.9-1.3
			c-0.6-0.5-1-1.2-1.3-1.9c-0.3-0.8-0.5-1.6-0.5-2.4c0-0.8,0.1-1.6,0.4-2.3c0.3-0.7,0.7-1.4,1.3-1.9c0.5-0.5,1.2-1,1.9-1.3
			c0.8-0.3,1.6-0.5,2.4-0.5c0.8,0,1.7,0.1,2.5,0.5c0.7,0.3,1.3,0.7,1.8,1.3c0.5,0.5,0.8,1.2,1.1,1.9c0.2,0.7,0.4,1.5,0.4,2.3
			c0,0.1,0,0.2,0,0.4c0,0.1,0,0.2,0,0.3c0,0.1,0,0.2,0,0.3h-8.3c0.2,0.7,0.5,1.3,1,1.6c0.5,0.3,1.1,0.5,1.7,0.5
			c0.6,0,1.1-0.1,1.6-0.4c0.4-0.3,0.8-0.6,1-1.1L228.1,30z M225,25.6c0-0.2-0.1-0.4-0.2-0.6c-0.1-0.2-0.3-0.4-0.5-0.6
			c-0.2-0.2-0.5-0.3-0.8-0.4c-0.3-0.1-0.7-0.2-1-0.2c-0.6,0-1.1,0.2-1.5,0.5c-0.4,0.3-0.8,0.8-1,1.3L225,25.6z"/>
		<path class="st1" d="M241.2,29.9c-0.5,1-1.3,1.8-2.2,2.4c-0.9,0.6-2,0.9-3.3,0.9c-0.8,0-1.7-0.1-2.4-0.4c-0.7-0.3-1.4-0.7-1.9-1.2
			c-0.5-0.5-1-1.2-1.3-1.9c-0.6-1.6-0.6-3.3,0-4.8c0.3-0.7,0.7-1.4,1.3-1.9c0.6-0.5,1.2-1,1.9-1.2c0.8-0.3,1.6-0.5,2.4-0.4
			c1.3,0,2.4,0.3,3.3,0.9c0.9,0.6,1.6,1.4,2.1,2.3l-3.2,1.3c-0.2-0.4-0.5-0.7-0.9-1c-0.4-0.2-0.9-0.3-1.3-0.3c-0.3,0-0.7,0-1,0.2
			c-0.3,0.1-0.6,0.3-0.9,0.6c-0.5,0.5-0.7,1.2-0.7,2s0.2,1.5,0.7,2c0.4,0.4,1,0.7,1.6,0.7c0.6,0.1,1.2,0,1.7-0.3
			c0.4-0.3,0.7-0.6,1-1L241.2,29.9z"/>
		<path class="st1" d="M250.9,31.3h-0.2c-0.8,1.2-1.9,1.8-3.4,1.8c-1.4,0-2.5-0.5-3.2-1.4c-0.7-0.9-1-2.1-1-3.6v-6.7h3.5v6.3
			c0,0.5,0.1,1.1,0.4,1.5c0.3,0.4,0.7,0.6,1.4,0.6c0.8,0,1.4-0.3,1.8-0.9c0.4-0.6,0.6-1.4,0.6-2.3v-5.2h3.4v11.3h-3.2V31.3z"/>
		<path class="st1" d="M256.7,21.5h3.2v1.4h0.2c0.3-0.5,0.8-1,1.3-1.3c0.6-0.4,1.2-0.5,1.9-0.5c0.4,0,0.7,0,1.1,0.1
			c0.3,0.1,0.5,0.2,0.8,0.3l-0.9,3.1c-0.2-0.1-0.4-0.2-0.6-0.3c-0.3-0.1-0.6-0.1-0.9-0.1c-0.9,0-1.5,0.3-2,0.9
			c-0.5,0.6-0.7,1.4-0.7,2.3v5.2h-3.4V21.5z"/>
		<path class="st1" d="M276.7,30c-0.5,0.9-1.3,1.7-2.2,2.3c-0.9,0.6-2,0.8-3.3,0.8c-0.8,0-1.7-0.1-2.4-0.4c-0.7-0.3-1.4-0.7-1.9-1.3
			c-0.6-0.5-1-1.2-1.3-1.9c-0.3-0.8-0.5-1.6-0.5-2.4c0-0.8,0.1-1.6,0.4-2.3c0.3-0.7,0.7-1.4,1.3-1.9c0.5-0.5,1.2-1,1.9-1.3
			c0.8-0.3,1.6-0.5,2.4-0.5c0.8,0,1.7,0.1,2.5,0.5c0.7,0.3,1.3,0.7,1.8,1.3c0.5,0.5,0.8,1.2,1.1,1.9c0.2,0.7,0.4,1.5,0.4,2.3
			c0,0.1,0,0.2,0,0.4c0,0.1,0,0.2,0,0.3c0,0.1,0,0.2,0,0.3h-8.3c0.2,0.7,0.5,1.3,1,1.6c0.5,0.3,1.1,0.5,1.7,0.5
			c0.6,0,1.1-0.1,1.6-0.4c0.4-0.3,0.8-0.6,1-1.1L276.7,30z M273.7,25.6c0-0.2-0.1-0.4-0.2-0.6c-0.1-0.2-0.3-0.4-0.5-0.6
			c-0.2-0.2-0.5-0.3-0.8-0.4c-0.3-0.1-0.7-0.2-1-0.2c-0.6,0-1.1,0.2-1.5,0.5c-0.5,0.3-0.8,0.8-1,1.3H273.7z"/>
		<path class="st1" d="M201.3,24.7c-0.3-0.7-0.7-1.3-1.2-1.9c-0.5-0.5-1.1-0.9-1.7-1.2c-0.7-0.3-1.4-0.4-2.1-0.4
			c-0.8,0-1.5,0.2-2.1,0.5c-0.5,0.3-0.9,0.7-1.2,1.1l0-1.5l0-0.1v-4.8h-3.4v16.5h3.2v-1.2h0.2c0.3,0.5,0.7,0.9,1.2,1.1
			c0.5,0.3,1.2,0.5,2.1,0.5c0.7,0,1.4-0.1,2.1-0.4c0.7-0.3,1.2-0.7,1.7-1.2c0.5-0.6,0.9-1.2,1.2-1.9c0.3-0.8,0.4-1.6,0.4-2.4
			C201.8,26.3,201.6,25.4,201.3,24.7z M198.1,28.3c-0.1,0.3-0.3,0.6-0.6,0.9c-0.3,0.2-0.6,0.4-0.9,0.6c-0.7,0.3-1.4,0.3-2.1,0
			c-0.3-0.1-0.6-0.3-0.9-0.6c-0.3-0.2-0.5-0.5-0.6-0.9c-0.1-0.4-0.2-0.8-0.2-1.2c0-0.4,0.1-0.8,0.2-1.1c0.1-0.3,0.3-0.6,0.6-0.9
			c0.2-0.2,0.5-0.4,0.9-0.6c0.7-0.3,1.4-0.3,2.1,0c0.3,0.1,0.6,0.3,0.9,0.6c0.3,0.3,0.5,0.5,0.6,0.9c0.2,0.4,0.2,0.8,0.2,1.1
			C198.3,27.5,198.2,27.9,198.1,28.3z"/>
		
			<linearGradient id="SVGID_3_" gradientUnits="userSpaceOnUse" x1="152" y1="26.5" x2="179.117" y2="26.5" gradientTransform="matrix(1 0 0 -1 0 51)">
			<stop  offset="0" style="stop-color:#134DDE"/>
			<stop  offset="1" style="stop-color:#137BDE"/>
		</linearGradient>
		<path class="st2" d="M152,30.4v3.1c0.1,0.9,0.3,1.7,0.8,2.4c0.9,1.4,2.5,2.1,4.2,2.1h13.8c4.6,0,8.3-3.8,8.3-8.4
			c0-4.6-3.7-8.4-8.3-8.4h-2.1v0.1v-0.1v-1.9c0-4.6-3.7-8.3-8.4-8.3c-4.6,0-8.4,3.7-8.4,8.3V30.4z M154.9,31.3v-12
			c0-1.5,0.6-2.9,1.6-3.9c1-1,2.4-1.6,3.9-1.6s2.9,0.6,3.9,1.6c1,1,1.6,2.4,1.6,3.9v2.1h-7.4v5.4c0,0.7,0.1,1.3,0.4,2
			c0.3,0.6,0.6,1.2,1.1,1.7c0.5,0.5,1,0.9,1.7,1.1c0.6,0.3,1.3,0.4,2,0.4s1.3-0.1,2-0.4c0.6-0.3,1.2-0.6,1.7-1.1
			c0.5-0.5,0.9-1,1.1-1.7c0.3-0.6,0.4-1.3,0.4-2v-2.7h2.1c1.5,0,2.9,0.6,3.9,1.6c1,1,1.6,2.4,1.6,3.9c0,1.5-0.6,2.9-1.6,3.9
			c-1,1-2.4,1.6-3.9,1.6h-12.6c-1.1,0-2.2,0.2-2.9-0.7c-0.2-0.3-0.4-0.7-0.4-1L154.9,31.3z M165.9,24.1v2.4c0,0.6-0.3,1.2-0.7,1.6
			c-0.4,0.4-1,0.7-1.6,0.7c-0.6,0-1.2-0.2-1.6-0.7c-0.4-0.4-0.7-1-0.7-1.6v-2.4H165.9z"/>
		<path class="st3" d="M165.9,21.4h-1.4v2.7h1.4V21.4z"/>
	</g>
</g>
<path class="st1" d="M55.3,33.5c3.6,0,5.8-1.9,5.8-4.8c0-2.2-1.7-3.9-4-4.1v-0.1c1.8-0.3,3.2-1.8,3.2-3.7c0-2.6-2-4.2-5.2-4.2h-7.4
	v16.9H55.3z M51.4,19.2h2.9c1.7,0,2.6,0.8,2.6,2.1c0,1.4-1.1,2.3-3,2.3h-2.5V19.2z M51.4,30.9V26h3c2.1,0,3.2,0.8,3.2,2.4
	c0,1.6-1.1,2.5-3.1,2.5H51.4z M74.5,20.9h-3.4v7.2c0,1.7-0.9,2.8-2.5,2.8c-1.5,0-2.3-0.9-2.3-2.6v-7.4h-3.4V29
	c0,2.9,1.8,4.7,4.5,4.7c1.9,0,3.1-0.9,3.8-2.5h0.1v2.3h3.3V20.9z M78.3,38.2c3.2,0,4.8-1.1,5.9-4.4l4.3-12.8h-3.6l-2.7,9.8h-0.1
	l-2.7-9.8h-3.8l4.4,12.6c0,0-0.1,0.6-0.1,0.6c-0.2,1-0.9,1.4-2.1,1.4c-0.1,0-0.8,0-0.9,0v2.6C77.1,38.1,78.2,38.2,78.3,38.2z
	 M112.1,20.9h-3.4l-1.9,9.3h-0.1l-2.2-9.3h-3.3L99,30.3h-0.1L97,20.9h-3.4l3.3,12.6h3.6l2.3-8.9h0.1l2.3,8.9h3.6L112.1,20.9z
	 M113.5,33.5h3.4V20.9h-3.4V33.5z M115.2,19.6c1,0,1.8-0.8,1.8-1.8c0-1-0.8-1.8-1.8-1.8c-1,0-1.8,0.8-1.8,1.8
	C113.4,18.8,114.2,19.6,115.2,19.6z M120.1,18v2.9h-1.8v2.6h1.8v6.6c0,2.4,1.1,3.4,4.1,3.4c0.7,0,1.3-0.1,1.6-0.1v-2.5
	c-0.2,0-0.5,0.1-0.8,0.1c-1,0-1.5-0.5-1.5-1.4v-6h2.3v-2.6h-2.3V18H120.1z M127.8,33.5h3.4v-7.2c0-1.7,0.9-2.8,2.6-2.8
	c1.6,0,2.4,1,2.4,2.6v7.4h3.4v-8.1c0-2.9-1.6-4.7-4.4-4.7c-1.9,0-3.3,0.9-3.9,2.5h-0.1v-6.6h-3.4V33.5z"/>
</svg>