<svg width="325" height="50" viewBox="0 0 325 50" fill="none" xmlns="http://www.w3.org/2000/svg">
<rect width="325" height="50" rx="4.52082" fill="black"/>
<path d="M49.8164 16.5898V33.5H53.3555V28.168H56.5195C60.082 28.168 62.5547 25.8477 62.5547 22.3789C62.5547 18.8984 60.1641 16.5898 56.6953 16.5898H49.8164ZM53.3555 19.3906H55.7578C57.7852 19.3906 58.957 20.4688 58.957 22.3906C58.957 24.3242 57.7734 25.4023 55.7461 25.4023H53.3555V19.3906ZM68.3906 31.2266C67.2305 31.2266 66.457 30.6406 66.457 29.7031C66.457 28.8125 67.1836 28.2383 68.4609 28.1445L71.1094 27.9805V28.8945C71.1094 30.2539 69.8789 31.2266 68.3906 31.2266ZM67.2656 33.6992C68.8359 33.6992 70.3945 32.9141 71.0977 31.5781H71.168V33.5H74.4727V24.8633C74.4727 22.332 72.375 20.668 69.1523 20.668C65.8242 20.668 63.75 22.3438 63.6211 24.7812H66.75C66.9141 23.8555 67.7227 23.2227 69 23.2227C70.2891 23.2227 71.1094 23.9023 71.1094 25.0742V25.9062L67.9453 26.0938C64.8164 26.2812 63.0586 27.6055 63.0586 29.8906C63.0586 32.1523 64.875 33.6992 67.2656 33.6992ZM78.2227 38.1523C81.4336 38.1523 83.0039 37.0039 84.082 33.7812L88.4062 20.9375H84.7969L82.125 30.7578H82.0664L79.3945 20.9375H75.6328L80.0039 33.5117C80.0273 33.5586 79.8984 34.0625 79.8984 34.1094C79.6641 35.1055 79.043 35.5039 77.7891 35.5039C77.6602 35.5039 77.0391 35.5039 76.9336 35.4805V38.1172C77.0391 38.1406 78.1055 38.1523 78.2227 38.1523ZM112.031 20.9375H108.656L106.746 30.2539H106.676L104.438 20.9375H101.156L98.9297 30.2539H98.8594L96.9609 20.9375H93.5156L96.8555 33.5H100.453L102.715 24.6172H102.785L105.059 33.5H108.703L112.031 20.9375ZM113.426 33.5H116.848V20.9375H113.426V33.5ZM115.137 19.5547C116.168 19.5547 116.965 18.7695 116.965 17.7852C116.965 16.7891 116.168 16.0156 115.137 16.0156C114.105 16.0156 113.309 16.7891 113.309 17.7852C113.309 18.7695 114.105 19.5547 115.137 19.5547ZM120.047 18.043V20.9375H118.277V23.5156H120.047V30.1133C120.047 32.5625 121.195 33.5469 124.148 33.5469C124.84 33.5469 125.426 33.4883 125.777 33.4062V30.8867C125.566 30.9219 125.25 30.9453 124.945 30.9453C123.938 30.9453 123.469 30.4883 123.469 29.5273V23.5156H125.789V20.9375H123.469V18.043H120.047ZM127.746 33.5H131.168V26.3281C131.168 24.6758 132.117 23.5391 133.734 23.5391C135.293 23.5391 136.09 24.5234 136.09 26.1406V33.5H139.512V25.4141C139.512 22.5078 137.918 20.7031 135.129 20.7031C133.219 20.7031 131.848 21.5938 131.18 23.1758H131.109V16.5898H127.746V33.5Z" fill="white"/>
<g clip-path="url(#clip0)">
<path d="M209.271 33.1012C207.738 33.1012 206.416 32.6914 205.305 31.8718C204.194 31.0523 203.408 29.8754 202.947 28.3413L206.328 27.0034C206.492 27.7197 206.833 28.3838 207.318 28.9359C207.778 29.4423 208.429 29.6956 209.271 29.6956C209.538 29.6964 209.805 29.6654 210.065 29.6034C210.303 29.5485 210.529 29.4513 210.732 29.3165C210.922 29.1865 211.083 29.0178 211.203 28.8215C211.328 28.6133 211.392 28.3744 211.388 28.1317C211.393 27.8728 211.338 27.6162 211.226 27.3826C211.114 27.1489 210.949 26.9448 210.744 26.7864C210.46 26.5609 210.151 26.3679 209.824 26.2111C209.352 25.9824 208.868 25.7789 208.375 25.6016L207.362 25.2345C206.902 25.0664 206.46 24.8544 206.041 24.6012C205.588 24.333 205.174 24.0044 204.81 23.6245C204.441 23.2363 204.14 22.7891 203.918 22.3015C203.682 21.778 203.565 21.2091 203.573 20.6351C203.569 19.9934 203.702 19.3583 203.964 18.7725C204.22 18.1978 204.597 17.6847 205.069 17.2681C205.576 16.8286 206.161 16.4892 206.794 16.2677C208.233 15.7899 209.786 15.778 211.232 16.2335C211.797 16.4286 212.325 16.7165 212.796 17.0852C213.205 17.4065 213.552 17.8 213.82 18.2462C214.055 18.6397 214.252 19.0555 214.406 19.4875L211.302 20.7986C211.152 20.3334 210.872 19.9208 210.496 19.6094C210.088 19.298 209.583 19.1401 209.07 19.1634C208.458 19.1634 207.971 19.2898 207.611 19.5425C207.445 19.6457 207.308 19.7895 207.213 19.9605C207.118 20.1314 207.069 20.3237 207.069 20.5192C207.074 20.7328 207.126 20.9428 207.221 21.1338C207.317 21.3249 207.454 21.4922 207.622 21.6236C207.99 21.9447 208.642 22.2668 209.577 22.5899L210.588 22.9348C211.984 23.4085 213.066 24.0447 213.832 24.8435C214.598 25.6423 214.981 26.7155 214.981 28.0633C215 28.8385 214.822 29.6058 214.463 30.2931C214.134 30.9035 213.678 31.4366 213.126 31.857C212.573 32.2752 211.949 32.5909 211.285 32.789C210.633 32.992 209.954 33.0972 209.271 33.1012Z" fill="white"/>
<path d="M228.062 29.997C227.542 30.9281 226.795 31.7118 225.889 32.2743C224.991 32.8253 223.906 33.1008 222.635 33.1008C221.804 33.1097 220.98 32.9582 220.207 32.6549C219.484 32.3686 218.824 31.9428 218.264 31.4017C217.711 30.8627 217.273 30.2168 216.977 29.5034C216.662 28.7416 216.506 27.9239 216.516 27.0997C216.514 26.3168 216.666 25.541 216.964 24.8169C217.261 24.0928 217.699 23.4344 218.251 22.8794C218.801 22.331 219.449 21.8904 220.161 21.5802C220.911 21.2531 221.722 21.0885 222.54 21.097C223.387 21.0794 224.229 21.2352 225.015 21.5549C225.693 21.8383 226.302 22.2665 226.799 22.8095C227.281 23.3524 227.648 23.9876 227.878 24.6766C228.127 25.4134 228.251 26.1867 228.245 26.9644C228.245 27.0878 228.245 27.2097 228.235 27.3316C228.228 27.4396 228.216 27.5473 228.199 27.6542C228.185 27.7526 228.177 27.852 228.177 27.9515H219.874C220.044 28.6868 220.391 29.2235 220.915 29.5614C221.435 29.8982 222.043 30.074 222.663 30.0668C223.225 30.0892 223.781 29.9455 224.261 29.6536C224.675 29.3862 225.018 29.0231 225.261 28.5951L228.062 29.997ZM225.003 25.6042C224.962 25.3956 224.888 25.1949 224.784 25.0096C224.662 24.7828 224.498 24.5811 224.301 24.415C224.075 24.228 223.819 24.0807 223.543 23.9794C223.223 23.86 222.884 23.801 222.543 23.8055C221.989 23.8048 221.45 23.9775 221 24.2993C220.55 24.6212 220.213 25.076 220.035 25.5998L225.003 25.6042Z" fill="white"/>
<path d="M241.239 29.8587C240.725 30.8283 239.968 31.6478 239.042 32.2371C238.129 32.8129 237.022 33.1003 235.719 33.0993C234.89 33.1083 234.066 32.9568 233.293 32.6534C232.574 32.3703 231.917 31.948 231.361 31.4106C230.811 30.874 230.38 30.2277 230.096 29.5138C229.499 27.9591 229.499 26.2387 230.096 24.684C230.38 23.9703 230.811 23.3242 231.361 22.7872C231.917 22.2503 232.574 21.8285 233.293 21.5459C234.066 21.2425 234.89 21.091 235.719 21.1C237.008 21.1 238.115 21.3834 239.042 21.9503C239.954 22.5009 240.673 23.3203 241.101 24.296L237.923 25.628C237.715 25.2268 237.408 24.8858 237.031 24.6379C236.629 24.4093 236.171 24.2981 235.709 24.3169C235.362 24.3063 235.017 24.3668 234.695 24.4947C234.373 24.6225 234.08 24.8149 233.835 25.0601C233.339 25.5556 233.091 26.234 233.091 27.0952C233.091 27.9564 233.339 28.6348 233.835 29.1303C234.265 29.533 234.812 29.7881 235.398 29.8584C235.983 29.9287 236.575 29.8106 237.089 29.5212C237.493 29.2611 237.825 28.9032 238.055 28.4806L241.239 29.8587Z" fill="white"/>
<path d="M250.854 31.3072H250.623C249.857 32.5024 248.708 33.1 247.174 33.1C245.763 33.1 244.713 32.6481 244.023 31.7443C243.333 30.8404 242.986 29.6512 242.982 28.1766V21.4648H246.433V27.7886C246.41 28.3248 246.563 28.8538 246.87 29.2944C247.16 29.6854 247.613 29.8891 248.225 29.8891C249.007 29.8891 249.602 29.5917 250.009 28.9971C250.417 28.4025 250.62 27.6206 250.619 26.6514V21.4648H254.069V32.7328H250.854V31.3072Z" fill="white"/>
<path d="M256.652 21.4652H259.872V22.8923H260.103C260.435 22.3749 260.882 21.9414 261.409 21.6257C261.974 21.2736 262.628 21.09 263.294 21.0965C263.66 21.0885 264.025 21.1387 264.375 21.2452C264.637 21.3293 264.889 21.4435 265.126 21.5856L264.234 24.6612C264.033 24.5536 263.82 24.4688 263.6 24.4085C263.318 24.3406 263.028 24.3096 262.738 24.3164C261.879 24.3164 261.223 24.6137 260.772 25.2083C260.32 25.8029 260.094 26.5848 260.094 27.5541V32.7332H256.652V21.4652Z" fill="white"/>
<path d="M276.721 29.997C276.201 30.9281 275.453 31.7118 274.547 32.2744C273.649 32.8254 272.565 33.1009 271.293 33.1009C270.463 33.1099 269.64 32.9584 268.867 32.6549C268.143 32.369 267.482 31.9432 266.923 31.4018C266.37 30.8627 265.932 30.2169 265.636 29.5035C265.323 28.7417 265.166 27.9247 265.176 27.1012C265.173 26.3181 265.324 25.5419 265.622 24.8174C265.919 24.0929 266.357 23.4343 266.91 22.8795C267.459 22.3311 268.107 21.8904 268.818 21.5802C269.568 21.2532 270.379 21.0885 271.197 21.0971C272.045 21.0791 272.889 21.2349 273.675 21.555C274.354 21.8384 274.962 22.2666 275.459 22.8096C275.941 23.3524 276.308 23.9876 276.538 24.6767C276.787 25.4135 276.911 26.1867 276.905 26.9645C276.905 27.0879 276.905 27.2098 276.895 27.3317C276.888 27.4397 276.876 27.5474 276.859 27.6542C276.845 27.7527 276.837 27.852 276.837 27.9515H268.534C268.704 28.6869 269.051 29.2235 269.575 29.5615C270.095 29.8983 270.703 30.0741 271.323 30.0669C271.885 30.0893 272.441 29.9455 272.921 29.6536C273.335 29.3862 273.678 29.0232 273.922 28.5952L276.721 29.997ZM273.663 25.6043C273.622 25.3957 273.548 25.1949 273.444 25.0097C273.322 24.7829 273.158 24.5811 272.961 24.4151C272.735 24.228 272.479 24.0807 272.203 23.9795C271.883 23.8599 271.544 23.8009 271.203 23.8056C270.649 23.8041 270.108 23.9771 269.658 24.2999C269.207 24.6227 268.87 25.0791 268.693 25.6043H273.663Z" fill="white"/>
<path d="M201.316 24.6601C201.044 23.9579 200.64 23.3141 200.127 22.7633C199.637 22.2398 199.046 21.8211 198.39 21.5324C197.739 21.2428 197.034 21.0938 196.321 21.0954C195.494 21.0954 194.808 21.2525 194.264 21.5666C193.768 21.8339 193.351 22.2265 193.055 22.7053L193.046 21.1623L193.055 21.0954V16.2656H189.609V32.7305H192.831V31.4893H193.06C193.355 31.9688 193.772 32.3616 194.268 32.628C194.811 32.9431 195.497 33.1002 196.326 33.0992C197.038 33.1007 197.744 32.9518 198.395 32.6621C199.05 32.3735 199.641 31.9553 200.131 31.4328C200.644 30.8817 201.048 30.238 201.32 29.536C201.619 28.7582 201.766 27.9309 201.756 27.098C201.765 26.2648 201.616 25.4374 201.316 24.6601ZM198.083 28.259C197.947 28.5885 197.745 28.8862 197.488 29.1331C197.234 29.3705 196.938 29.5576 196.614 29.6846C195.941 29.9463 195.194 29.9463 194.521 29.6846C194.198 29.5572 193.902 29.3701 193.648 29.1331C193.391 28.8866 193.188 28.5888 193.054 28.259C192.904 27.8905 192.83 27.4957 192.837 27.098C192.829 26.7042 192.903 26.313 193.054 25.9489C193.192 25.6207 193.394 25.3231 193.648 25.0734C193.897 24.8304 194.192 24.6389 194.515 24.51C195.188 24.2483 195.935 24.2483 196.608 24.51C196.936 24.6372 197.235 24.8287 197.488 25.0734C197.742 25.3235 197.944 25.621 198.083 25.9489C198.233 26.3132 198.306 26.7042 198.3 27.098C198.305 27.4956 198.232 27.8903 198.083 28.259Z" fill="white"/>
<path d="M152 30.3636V33.4185C152.052 34.2865 152.329 35.126 152.803 35.8549C153.729 37.2285 155.254 38 156.965 38H170.809C175.397 38 179.117 34.2495 179.117 29.6234C179.117 24.9972 175.401 21.2571 170.814 21.2571H168.752V21.379V21.2571V19.3083C168.752 14.7163 165.003 11 160.377 11C155.751 11 152 14.7163 152 19.3083V30.3636ZM154.871 31.3091V19.3083C154.871 17.8483 155.45 16.4482 156.483 15.4159C157.515 14.3836 158.915 13.8036 160.375 13.8036C161.835 13.8036 163.235 14.3836 164.268 15.4159C165.3 16.4482 165.88 17.8483 165.88 19.3083V21.3716H158.447V26.7974C158.447 27.4744 158.58 28.1448 158.84 28.7703C159.099 29.3958 159.478 29.9641 159.957 30.4428C160.436 30.9215 161.004 31.3013 161.63 31.5603C162.255 31.8194 162.925 31.9528 163.602 31.9528C164.279 31.9528 164.95 31.8194 165.575 31.5603C166.201 31.3013 166.769 30.9215 167.248 30.4428C167.727 29.9641 168.106 29.3958 168.365 28.7703C168.624 28.1448 168.758 27.4744 168.758 26.7974V24.1217H170.82C172.279 24.1217 173.679 24.7015 174.711 25.7337C175.744 26.7659 176.323 28.1659 176.323 29.6256C176.323 31.0853 175.744 32.4853 174.711 33.5174C173.679 34.5496 172.279 35.1295 170.82 35.1295H158.218C157.167 35.1295 156.029 35.3287 155.291 34.4011C155.063 34.0969 154.918 33.7381 154.872 33.3605L154.871 31.3091ZM165.881 24.1202V26.5388C165.866 27.1384 165.617 27.7083 165.188 28.127C164.758 28.5457 164.182 28.78 163.582 28.78C162.983 28.78 162.407 28.5457 161.977 28.127C161.548 27.7083 161.299 27.1384 161.283 26.5388V24.1202H165.881Z" fill="url(#paint0_linear)"/>
<path d="M165.88 21.3711H164.516V24.1197H165.88V21.3711Z" fill="#134DDE"/>
</g>
<defs>
<linearGradient id="paint0_linear" x1="152" y1="24.5007" x2="179.122" y2="24.5007" gradientUnits="userSpaceOnUse">
<stop stop-color="#134DDE"/>
<stop offset="1" stop-color="#137BDE"/>
</linearGradient>
<clipPath id="clip0">
<rect width="124.905" height="27" fill="white" transform="translate(152 11)"/>
</clipPath>
</defs>
</svg>
