<svg width="37" height="10" viewBox="0 0 37 10" fill="none" xmlns="http://www.w3.org/2000/svg">
<g clip-path="url(#clip0)">
<path d="M17.0142 8.941C16.5655 8.941 16.1786 8.82106 15.8534 8.58119C15.5283 8.34131 15.2983 7.99687 15.1634 7.54786L16.1528 7.15629C16.201 7.36594 16.3005 7.56031 16.4425 7.7219C16.5771 7.87012 16.7677 7.94423 17.0142 7.94423C17.0925 7.94447 17.1705 7.93541 17.2466 7.91725C17.3162 7.90118 17.3824 7.87273 17.4419 7.83328C17.4976 7.79524 17.5446 7.74587 17.5798 7.6884C17.6164 7.62748 17.6351 7.55753 17.6338 7.48652C17.6353 7.41073 17.6191 7.33563 17.5864 7.26726C17.5537 7.19888 17.5054 7.13911 17.4454 7.09276C17.3622 7.02676 17.2719 6.97028 17.1761 6.92439C17.038 6.85745 16.8963 6.7979 16.7519 6.746L16.4556 6.63854C16.321 6.58936 16.1915 6.52729 16.0688 6.45319C15.9363 6.3747 15.8151 6.27853 15.7086 6.16734C15.6006 6.0537 15.5123 5.92283 15.4475 5.78011C15.3786 5.62688 15.3441 5.46039 15.3466 5.29239C15.3453 5.10458 15.3843 4.91868 15.461 4.74722C15.536 4.57902 15.6462 4.42887 15.7843 4.30692C15.9326 4.1783 16.104 4.07894 16.2894 4.01411C16.7105 3.87429 17.1649 3.87079 17.5881 4.0041C17.7535 4.06123 17.9081 4.14548 18.0458 4.2534C18.1656 4.34744 18.2672 4.4626 18.3456 4.5932C18.4146 4.70836 18.472 4.83005 18.517 4.9565L17.6086 5.34024C17.5648 5.20409 17.483 5.08331 17.3727 4.99218C17.2533 4.90104 17.1056 4.85484 16.9555 4.86165C16.7762 4.86165 16.6338 4.89863 16.5283 4.9726C16.4797 5.00279 16.4396 5.0449 16.4119 5.09493C16.3842 5.14497 16.3697 5.20125 16.3699 5.25845C16.3711 5.32097 16.3863 5.38243 16.4143 5.43835C16.4423 5.49427 16.4824 5.54325 16.5317 5.58172C16.6393 5.67569 16.8301 5.76996 17.1039 5.86452L17.3997 5.96546C17.8084 6.10411 18.1249 6.29032 18.3491 6.52411C18.5733 6.75789 18.6854 7.07203 18.6854 7.4665C18.6911 7.69337 18.639 7.91796 18.534 8.11913C18.4375 8.29778 18.304 8.45381 18.1424 8.57684C17.9806 8.69924 17.7982 8.79164 17.6038 8.84964C17.4129 8.90904 17.2142 8.93983 17.0142 8.941Z" fill="#192631"/>
<path d="M22.5137 8.03298C22.3616 8.3055 22.1427 8.53487 21.8776 8.69953C21.6148 8.8608 21.2974 8.94143 20.9252 8.94143C20.6822 8.94401 20.441 8.89969 20.2147 8.81091C20.003 8.7271 19.8098 8.60248 19.6461 8.44413C19.4842 8.28636 19.356 8.09733 19.2693 7.88853C19.1772 7.66555 19.1313 7.42622 19.1344 7.185C19.1337 6.95585 19.1782 6.72881 19.2654 6.51686C19.3525 6.30492 19.4805 6.11222 19.6422 5.94979C19.8032 5.78929 19.9928 5.66032 20.2012 5.56953C20.4207 5.47381 20.658 5.42562 20.8974 5.42813C21.1455 5.42297 21.392 5.46857 21.6218 5.56213C21.8205 5.64508 21.9987 5.77041 22.1439 5.92935C22.2851 6.08822 22.3926 6.27414 22.4598 6.47581C22.5327 6.69146 22.569 6.91778 22.5672 7.14541C22.5672 7.18152 22.5672 7.21719 22.5642 7.25287C22.5623 7.2845 22.5588 7.31601 22.5538 7.34729C22.5496 7.37611 22.5474 7.40518 22.5472 7.4343H20.1173C20.1669 7.64952 20.2684 7.80659 20.4218 7.9055C20.5741 8.00407 20.7521 8.05553 20.9335 8.05343C21.0979 8.05998 21.2606 8.0179 21.4012 7.93247C21.5223 7.85421 21.6227 7.74796 21.694 7.62269L22.5137 8.03298ZM21.6183 6.7473C21.6064 6.68625 21.5848 6.62749 21.5544 6.57327C21.5186 6.50689 21.4706 6.44785 21.413 6.39924C21.3467 6.34449 21.2717 6.30139 21.1911 6.27176C21.0975 6.23679 20.9982 6.21953 20.8983 6.22085C20.7364 6.22063 20.5785 6.27117 20.4468 6.36538C20.3151 6.45958 20.2163 6.5927 20.1643 6.746L21.6183 6.7473Z" fill="#192631"/>
<path d="M26.3703 7.99185C26.2198 8.27564 25.9983 8.51551 25.7273 8.68798C25.4601 8.85651 25.136 8.94062 24.7549 8.94033C24.512 8.94295 24.2709 8.89863 24.0448 8.80981C23.8342 8.72697 23.6419 8.60337 23.4792 8.44608C23.3182 8.28901 23.1921 8.09987 23.1089 7.89091C22.9343 7.43589 22.9343 6.93234 23.1089 6.47732C23.1922 6.26844 23.3184 6.07932 23.4792 5.92215C23.642 5.765 23.8342 5.64154 24.0448 5.55886C24.2709 5.47003 24.512 5.42571 24.7549 5.42833C25.1319 5.42833 25.4561 5.51129 25.7273 5.6772C25.9942 5.83836 26.2047 6.07819 26.3299 6.36376L25.3997 6.7536C25.339 6.63618 25.2491 6.53638 25.1386 6.46383C25.021 6.39692 24.887 6.36436 24.7518 6.36986C24.6504 6.36677 24.5494 6.38448 24.455 6.4219C24.3606 6.45931 24.2749 6.51563 24.2032 6.5874C24.0581 6.73243 23.9856 6.93097 23.9856 7.18303C23.9856 7.43509 24.0581 7.63363 24.2032 7.77866C24.3291 7.89654 24.4894 7.9712 24.6606 7.99178C24.8319 8.01236 25.0053 7.97778 25.1556 7.89309C25.2739 7.81695 25.3712 7.71221 25.4384 7.58853L26.3703 7.99185Z" fill="#192631"/>
<path d="M29.1848 8.41585H29.1174C28.8932 8.76566 28.5567 8.94056 28.108 8.94056C27.6949 8.94056 27.3875 8.8083 27.1856 8.54377C26.9837 8.27923 26.8822 7.93117 26.881 7.49956V5.53516H27.8909V7.38601C27.8842 7.54295 27.9291 7.69777 28.0188 7.82675C28.1036 7.94117 28.2363 8.00078 28.4156 8.00078C28.6444 8.00078 28.8185 7.91376 28.9377 7.73973C29.0569 7.5657 29.1164 7.33684 29.1161 7.05317V5.53516H30.1259V8.8331H29.1848V8.41585Z" fill="#192631"/>
<path d="M30.8817 5.53588H31.824V5.95356H31.8915C31.9886 5.80213 32.1195 5.67526 32.2739 5.58287C32.4393 5.4798 32.6307 5.42606 32.8256 5.42798C32.9327 5.42564 33.0395 5.44032 33.1419 5.47148C33.2188 5.4961 33.2925 5.52953 33.3616 5.57112L33.1006 6.47131C33.0418 6.43979 32.9796 6.41498 32.9152 6.39734C32.8326 6.37745 32.7478 6.36838 32.6629 6.37037C32.4114 6.37037 32.2195 6.45739 32.0873 6.63142C31.955 6.80545 31.8889 7.03431 31.8889 7.31798V8.83382H30.8817V5.53588Z" fill="#192631"/>
<path d="M36.7553 8.033C36.6032 8.30552 36.3844 8.53489 36.1192 8.69955C35.8565 8.86082 35.539 8.94145 35.1668 8.94145C34.924 8.94407 34.6829 8.89975 34.4568 8.81093C34.2448 8.72723 34.0515 8.6026 33.8877 8.44415C33.7258 8.28637 33.5976 8.09735 33.5109 7.88855C33.4193 7.66559 33.3736 7.42647 33.3765 7.18545C33.3755 6.95623 33.4198 6.72907 33.5069 6.51702C33.5939 6.30498 33.722 6.11221 33.8838 5.94981C34.0446 5.78932 34.2341 5.66034 34.4424 5.56955C34.6619 5.47383 34.8991 5.42564 35.1386 5.42815C35.3869 5.42287 35.6338 5.46847 35.8638 5.56215C36.0625 5.6451 36.2407 5.77042 36.3859 5.92936C36.5272 6.08824 36.6346 6.27416 36.7018 6.47583C36.7747 6.69148 36.811 6.9178 36.8093 7.14542C36.8093 7.18154 36.8093 7.21721 36.8062 7.25289C36.8043 7.28452 36.8009 7.31603 36.7958 7.3473C36.7916 7.37613 36.7895 7.4052 36.7893 7.43432H34.3593C34.4089 7.64954 34.5104 7.80661 34.6639 7.90552C34.8162 8.00409 34.9942 8.05555 35.1755 8.05344C35.34 8.05999 35.5026 8.01792 35.6433 7.93249C35.7643 7.85423 35.8647 7.74798 35.9361 7.62271L36.7553 8.033ZM35.8604 6.74732C35.8485 6.68627 35.8269 6.62751 35.7964 6.57329C35.7606 6.50691 35.7127 6.44786 35.655 6.39925C35.5888 6.34451 35.5138 6.30141 35.4331 6.27177C35.3395 6.23677 35.2402 6.2195 35.1403 6.22087C34.9781 6.22045 34.8199 6.27107 34.6881 6.36555C34.5563 6.46004 34.4576 6.5936 34.4059 6.74732H35.8604Z" fill="#192631"/>
<path d="M14.6857 6.47108C14.6061 6.26556 14.4879 6.07713 14.3376 5.91591C14.1943 5.76271 14.0214 5.64016 13.8294 5.55566C13.6388 5.47088 13.4324 5.42729 13.2238 5.42775C12.9816 5.42775 12.7809 5.47372 12.6216 5.56567C12.4766 5.64389 12.3546 5.75881 12.2679 5.89895L12.2653 5.44733L12.2679 5.42775V4.01416H11.2594V8.83316H12.2022V8.46986H12.2692C12.3557 8.6102 12.4777 8.72518 12.623 8.80313C12.7819 8.89537 12.9826 8.94135 13.2251 8.94106C13.4337 8.94151 13.6401 8.89793 13.8307 8.81314C14.0226 8.72865 14.1955 8.60626 14.3389 8.45333C14.4891 8.29204 14.6073 8.10363 14.687 7.89816C14.7743 7.67054 14.8176 7.42839 14.8145 7.18462C14.8172 6.94076 14.7735 6.6986 14.6857 6.47108ZM13.7394 7.52442C13.6998 7.62087 13.6405 7.708 13.5653 7.78025C13.491 7.84972 13.4042 7.9045 13.3095 7.94167C13.1125 8.01826 12.8939 8.01826 12.6969 7.94167C12.6024 7.90439 12.5158 7.84963 12.4415 7.78025C12.3662 7.70811 12.3069 7.62095 12.2675 7.52442C12.2237 7.41657 12.2021 7.30101 12.204 7.18462C12.2018 7.06934 12.2234 6.95485 12.2675 6.8483C12.308 6.75223 12.3672 6.66513 12.4415 6.59204C12.5144 6.52092 12.6006 6.46488 12.6952 6.42714C12.8922 6.35055 13.1108 6.35055 13.3078 6.42714C13.4038 6.46437 13.4913 6.52044 13.5653 6.59204C13.6396 6.66525 13.6987 6.75231 13.7394 6.8483C13.7833 6.95491 13.8049 7.06936 13.8029 7.18462C13.8046 7.30099 13.783 7.41651 13.7394 7.52442Z" fill="#192631"/>
<path d="M0.742493 6.51101V7.48077C0.758996 7.75631 0.846807 8.02283 0.99732 8.25422C1.29132 8.69026 1.77549 8.93518 2.31865 8.93518H6.71347C8.16976 8.93518 9.35094 7.74457 9.35094 6.27601C9.35094 4.80745 8.17118 3.62014 6.71489 3.62014H6.06036V3.65884V3.62014V3.00148C6.06036 1.54377 4.87022 0.364014 3.40166 0.364014C1.9331 0.364014 0.742493 1.54377 0.742493 3.00148V6.51101ZM1.65374 6.81114V3.00148C1.65374 2.53802 1.83784 2.09355 2.16555 1.76584C2.49327 1.43813 2.93774 1.25402 3.40119 1.25402C3.86464 1.25402 4.30912 1.43813 4.63683 1.76584C4.96454 2.09355 5.14865 2.53802 5.14865 3.00148V3.65648H2.78913V5.37892C2.78913 5.59384 2.83146 5.80665 2.91371 6.0052C2.99595 6.20376 3.1165 6.38417 3.26847 6.53614C3.42044 6.68811 3.60085 6.80866 3.79941 6.8909C3.99796 6.97315 4.21078 7.01548 4.42569 7.01548C4.64061 7.01548 4.85342 6.97315 5.05197 6.8909C5.25053 6.80866 5.43094 6.68811 5.58291 6.53614C5.73488 6.38417 5.85543 6.20376 5.93767 6.0052C6.01992 5.80665 6.06225 5.59384 6.06225 5.37892V4.5295H6.71678C7.18017 4.5295 7.62458 4.71358 7.95225 5.04124C8.27991 5.36891 8.464 5.81332 8.464 6.27671C8.464 6.74011 8.27991 7.18452 7.95225 7.51218C7.62458 7.83985 7.18017 8.02393 6.71678 8.02393H2.71646C2.38283 8.02393 2.02135 8.08717 1.78728 7.7927C1.71478 7.69613 1.66889 7.58223 1.65421 7.46237L1.65374 6.81114ZM5.14912 4.52902V5.29681C5.14428 5.48715 5.06526 5.66807 4.92893 5.80098C4.79259 5.93389 4.60972 6.00828 4.41932 6.00828C4.22892 6.00828 4.04605 5.93389 3.90971 5.80098C3.77338 5.66807 3.69436 5.48715 3.68952 5.29681V4.52902H5.14912Z" fill="url(#paint0_linear)"/>
<path d="M5.14921 3.65698H4.716V4.52953H5.14921V3.65698Z" fill="#134DDE"/>
<path d="M11.2607 0.967698V3.34119H11.7575V2.6043H12.2263C12.7263 2.6043 13.0733 2.27698 13.0733 1.78847C13.0733 1.29502 12.7394 0.967698 12.2509 0.967698H11.2607ZM11.7575 1.37562H12.1193C12.4055 1.37562 12.5684 1.52036 12.5684 1.79011C12.5684 2.05658 12.4023 2.20132 12.1177 2.20132H11.7575V1.37562ZM14.5685 0.90684C13.8711 0.90684 13.4253 1.38384 13.4253 2.15362C13.4253 2.9234 13.8645 3.40205 14.5685 3.40205C15.2708 3.40205 15.7084 2.9234 15.7084 2.15362C15.7084 1.38548 15.2692 0.90684 14.5685 0.90684ZM14.5685 1.34272C14.955 1.34272 15.2018 1.65688 15.2018 2.15362C15.2018 2.64871 14.955 2.96617 14.5685 2.96617C14.1787 2.96617 13.9336 2.64871 13.9336 2.15362C13.9336 1.65688 14.1836 1.34272 14.5685 1.34272ZM17.4946 1.77037H17.521L17.97 3.34119H18.4355L19.0655 0.967698H18.5523L18.1855 2.64049H18.1592L17.7183 0.967698H17.2989L16.8663 2.64049H16.84L16.4699 0.967698H15.9534L16.5818 3.34119H17.0505L17.4946 1.77037ZM21.0705 2.91682H19.9948V2.33949H21.0096V1.94637H19.9948V1.39206H21.0705V0.967698H19.498V3.34119H21.0705V2.91682ZM22.0903 1.36904H22.5212C22.768 1.36904 22.9226 1.51049 22.9226 1.73583C22.9226 1.96446 22.7762 2.09934 22.5262 2.09934H22.0903V1.36904ZM22.0903 2.48094H22.4966L22.939 3.34119H23.5016L23.0015 2.40363C23.2746 2.29508 23.4325 2.0319 23.4325 1.72925C23.4325 1.25719 23.1117 0.967698 22.5903 0.967698H21.5936V3.34119H22.0903V2.48094ZM25.505 2.91682H24.4292V2.33949H25.4441V1.94637H24.4292V1.39206H25.505V0.967698H23.9325V3.34119H25.505V2.91682ZM26.028 0.966053V3.34119H26.9623C27.6728 3.34119 28.0758 2.9086 28.0758 2.13717C28.0758 1.39371 27.6679 0.966053 26.9623 0.966053H26.028ZM26.5248 1.39042H26.8833C27.3143 1.39042 27.5692 1.66511 27.5692 2.1454C27.5692 2.64707 27.3225 2.91682 26.8833 2.91682H26.5248V1.39042ZM30.4789 3.34119C30.9855 3.34119 31.2997 3.07801 31.2997 2.66187C31.2997 2.35593 31.0711 2.11908 30.7569 2.09605V2.06644C31.0003 2.03026 31.1862 1.8115 31.1862 1.55984C31.1862 1.19304 30.9115 0.967698 30.451 0.967698H29.4131V3.34119H30.4789ZM29.9098 1.34765H30.3243C30.5612 1.34765 30.6977 1.46115 30.6977 1.6503C30.6977 1.8411 30.5513 1.95131 30.2832 1.95131H29.9098V1.34765ZM29.9098 2.96123V2.28685H30.3408C30.6335 2.28685 30.7931 2.40199 30.7931 2.61911C30.7931 2.84116 30.6385 2.96123 30.3523 2.96123H29.9098ZM32.8376 3.34119V2.46778L33.6633 0.967698H33.1255L32.604 1.96117H32.5744L32.0514 0.967698H31.5135L32.3409 2.46778V3.34119H32.8376Z" fill="#137BDE"/>
</g>
<defs>
<linearGradient id="paint0_linear" x1="0.742493" y1="4.64983" x2="9.35235" y2="4.64983" gradientUnits="userSpaceOnUse">
<stop stop-color="#134DDE"/>
<stop offset="1" stop-color="#137BDE"/>
</linearGradient>
<clipPath id="clip0">
<rect width="36.112" height="8.89454" fill="white" transform="translate(0.730286 0.321411)"/>
</clipPath>
</defs>
</svg>
